<?xml version="1.0" encoding="UTF-8"?>
<svg width="200px" height="38px" viewBox="0 0 200 38" version="1.1" xmlns="http://www.w3.org/2000/svg" xmlns:xlink="http://www.w3.org/1999/xlink">
    <!-- Generator: Sketch 59.1 (86144) - https://sketch.com -->
    <title>logo/normal_colored</title>
    <desc>Created with Sketch.</desc>
    <g id="logo/normal_colored" stroke="none" stroke-width="1" fill="none" fill-rule="evenodd">
        <path d="M0,26.9414234 L10.1125739,0.992177065 L14.3102461,0.992177065 L24.3846594,26.6361381 L19.4237741,27.32303 L17.0959741,20.8357184 L7.25052471,20.8357184 L4.96088533,26.9414234 L0,26.9414234 Z M8.70062965,16.8288495 L15.5695478,16.8288495 L12.0969281,7.7847739 L8.70062965,16.8288495 Z M32.9326464,0.992177065 L32.9326464,26.9414234 L28.0099218,26.9414234 L28.0099218,0.992177065 L32.9326464,0.992177065 Z M45.1440565,26.9414234 L55.2566304,0.992177065 L59.4543026,0.992177065 L69.5287159,26.6361381 L64.5678306,27.32303 L62.2400305,20.8357184 L52.3945812,20.8357184 L50.1049418,26.9414234 L45.1440565,26.9414234 Z M53.8446861,16.8288495 L60.7136043,16.8288495 L57.2409845,7.7847739 L53.8446861,16.8288495 Z M80.7097882,7.93741652 C81.5745087,7.93741652 82.6430071,8.11524518 83.9152833,8.47166571 C85.1875596,8.82808624 86.256058,9.29822553 87.1207785,9.88361 L85.7088342,13.432551 C84.7418432,12.9998092 83.8771227,12.6823125 83.1139096,12.4785346 C82.3506964,12.2747567 81.5622973,12.1732494 80.7479489,12.1732494 C79.3741652,12.1732494 78.2354512,12.6945239 77.3325701,13.7378363 C76.429689,14.7811486 75.9778668,16.103797 75.9778668,17.7065446 C75.9778668,19.3092921 76.4228201,20.6197291 77.3134898,21.6370922 C78.2041595,22.6544553 79.3489792,23.1635184 80.7479489,23.1635184 C81.5622973,23.1635184 82.3506964,23.0620111 83.1139096,22.8582332 C83.8771227,22.6544553 84.7418432,22.3369586 85.7088342,21.9042168 L87.1207785,25.4913185 C86.3323793,26.101889 85.3020416,26.5727915 84.0297653,26.9032627 C82.757489,27.233734 81.65083,27.3993513 80.7097882,27.3993513 C78.7254341,27.3993513 76.9891242,27.0047701 75.5008586,26.2163709 C74.012593,25.4279718 72.8677733,24.3022324 72.0663995,22.8391528 C71.2650258,21.3760733 70.8643389,19.6657127 70.8643389,17.7065446 C70.8643389,15.7473765 71.2650258,14.0301469 72.0663995,12.5548559 C72.8677733,11.079565 74.012593,9.94085098 75.5008586,9.1394772 C76.9891242,8.33810342 78.7254341,7.93741652 80.7097882,7.93741652 Z M97.1951918,12.5166953 C96.3556573,12.5166953 95.4268269,12.637283 94.4094638,12.8792215 C93.3921007,13.1211601 92.5266171,13.407365 91.8145392,13.7378363 L90.4789162,9.6164854 C91.140622,9.18374356 92.1961458,8.79603129 93.6462507,8.45258538 C95.0963557,8.10913948 96.25415,7.93741652 97.1188704,7.93741652 C98.5941614,7.93741652 99.942759,8.22972715 101.1639,8.81511162 C102.385041,9.40049609 103.358138,10.2140813 104.08319,11.2573936 C104.808243,12.300706 105.170769,13.4707117 105.170769,14.768174 L105.170769,26.9414234 L101.927113,26.9414234 L101.087579,24.9570693 C99.5359664,26.5850029 97.9072696,27.3993513 96.2030147,27.3993513 C93.9896966,27.3993513 92.3236024,26.8589964 91.2039687,25.7775234 C90.0843351,24.6960504 89.5248998,23.2398397 89.5248998,21.4081282 C89.5248998,19.5252814 90.1606564,18.0690708 91.4329326,17.0387331 C92.7052089,16.0083953 94.4094638,15.4932265 96.5464606,15.4932265 L100.171723,15.4932265 C100.146537,14.5521847 99.8725434,13.8202633 99.3512688,13.2989887 C98.8299943,12.7777142 98.1110475,12.5166953 97.1951918,12.5166953 Z M96.4701393,18.8132036 C95.6557909,18.8132036 95.000954,19.0673536 94.5048655,19.5764167 C94.0187249,20.060837 93.7501606,20.7219184 93.7607327,21.4081282 C93.7607327,21.9675634 93.9835909,22.4514406 94.4285442,22.8582332 C94.8734974,23.2650258 95.4398016,23.4688037 96.1266934,23.4688037 C97.6019844,23.4688037 98.9635566,22.8582332 100.209884,21.6370922 L100.209884,18.8132036 L96.4701393,18.8132036 Z M126.464415,26.9414234 L123.869491,26.9414234 L122.724671,25.2623545 C121.096737,26.6872734 119.315398,27.3993513 117.382179,27.3993513 C114.507155,27.3993513 112.236596,26.5277619 110.570502,24.7853463 C108.904408,23.0429307 108.070979,20.6830757 108.070979,17.7065446 C108.070979,15.7733257 108.44648,14.0683076 109.196718,12.5930166 C109.946957,11.1177256 111.034535,9.97290593 112.459454,9.15855753 C113.884373,8.34420912 115.575654,7.93741652 117.534822,7.93741652 C118.145392,7.93741652 118.794123,8.04579279 119.481015,8.2617821 C120.167907,8.47777142 120.829613,8.77695096 121.465369,9.15855753 L121.465369,0.41976722 L126.464415,0 L126.464415,26.9414234 Z M117.572982,23.1635184 C118.234688,23.1635184 118.87655,23.0360618 119.500095,22.7819118 C120.123641,22.5277619 120.778477,22.1461553 121.465369,21.6370922 L121.465369,13.7378363 C120.803663,13.1784011 120.167907,12.7777142 119.557336,12.5357756 C118.924907,12.2900228 118.251453,12.166988 117.572982,12.1732494 C116.224385,12.1732494 115.155886,12.6884182 114.367487,13.718756 C113.579088,14.7490937 113.184507,16.078611 113.184507,17.7065446 C113.184507,19.3344782 113.572219,20.6510208 114.348407,21.6561725 C115.124595,22.6613242 116.199199,23.1635184 117.572982,23.1635184 Z M139.210074,7.93741652 C141.066972,7.93741652 142.631559,8.37015837 143.903835,9.23487884 C145.176111,10.0995993 146.117153,11.2634993 146.727724,12.7265789 C147.338294,14.1896585 147.643579,15.8236978 147.643579,17.6302232 L147.643579,19.1566495 L135.165045,19.1566495 C135.419195,20.4541118 135.972524,21.4462889 136.825033,22.1331807 C137.677542,22.8200725 138.98111,23.1635184 140.736501,23.1635184 C141.753864,23.1635184 142.66972,23.0238504 143.484068,22.7437512 C144.298416,22.463652 145.176111,22.0568594 146.117153,21.5226102 L147.567258,25.1097119 C146.647199,25.8356752 145.616436,26.4090373 144.514406,26.8078611 C143.420721,27.2024423 142.123259,27.3993513 140.622019,27.3993513 C137.111238,27.3993513 134.446098,26.5407365 132.627361,24.823507 C130.808624,23.1062774 129.898874,20.734211 129.898874,17.7065446 C129.898874,15.7473765 130.274375,14.0301469 131.024614,12.5548559 C131.774852,11.079565 132.850219,9.94085098 134.249189,9.1394772 C135.648159,8.33810342 137.302042,7.93741652 139.210074,7.93741652 Z M139.095592,12.1732494 C138.078229,12.1732494 137.22572,12.4846403 136.538828,13.1081855 C135.851937,13.7317306 135.406983,14.6407174 135.203205,15.8366724 L142.949819,15.8366724 C142.695669,14.6155314 142.243847,13.6996756 141.595115,13.0891051 C140.946384,12.4785346 140.112956,12.1732494 139.095592,12.1732494 Z M179.278764,14.5773707 L179.278764,26.9414234 L174.317878,26.9414234 L174.317878,15.5695478 C174.317878,14.3735928 174.133181,13.4707117 173.764549,12.8601412 C173.395917,12.2495707 172.816638,11.9442854 172.028239,11.9442854 C171.265026,11.9442854 170.565159,12.1221141 169.929403,12.4785346 C169.293646,12.8349552 168.479298,13.3692044 167.487121,14.0812822 L167.487121,26.9414234 L162.526235,26.9414234 L162.526235,15.5695478 C162.526235,14.3735928 162.341538,13.4707117 161.972906,12.8601412 C161.604274,12.2495707 161.024995,11.9442854 160.236596,11.9442854 C159.473383,11.9442854 158.773517,12.1221141 158.13776,12.4785346 C157.502003,12.8349552 156.67468,13.3814158 155.657317,14.1194429 L155.657317,26.9414234 L150.696432,26.9414234 L150.696432,8.43350506 L153.940088,8.43350506 L154.779622,10.4178592 C155.924442,9.60351078 157.107422,8.96775425 158.328563,8.50982637 C159.549704,8.05189849 160.618203,7.82293455 161.534058,7.82293455 C164.052662,7.82293455 165.756917,8.66246899 166.647586,10.3415379 C167.792406,9.55313871 168.962412,8.93569929 170.158367,8.49074604 C171.354322,8.04579279 172.409845,7.82293455 173.325701,7.82293455 C175.437512,7.82293455 176.957069,8.38923869 177.8859,9.52108376 C178.81473,10.6529288 179.278764,12.3388666 179.278764,14.5773707 Z M200,8.43350506 L192.749475,26.8651021 L192.749475,35.7183744 L188.437321,35.7183744 L188.437321,26.9414234 L181.606564,9.19671818 L186.452967,7.74661324 L190.726961,19.652738 L194.77199,8.43350506 L200,8.43350506 Z M3.8198817,33.4821599 L4.41518794,33.4821599 C4.84258729,33.4821599 5.21656172,33.489792 5.72791452,33.5126884 C5.81186796,33.5126884 5.82713223,33.4668956 5.83476436,33.3676779 C5.84239649,33.1768746 5.84239649,32.963175 5.83476436,32.7723717 C5.83476436,32.6884182 5.81186796,32.6426255 5.73554665,32.6502576 C5.28525091,32.673154 4.86548369,32.673154 4.39992368,32.673154 L2.24003053,32.673154 C1.60656363,32.673154 1.30127838,32.6807861 0.919671818,32.6426255 C0.919671818,32.9021179 0.950200343,33.199771 0.980728869,33.3524137 C1.00362526,33.4668956 1.01888952,33.5203205 1.1104751,33.5126884 C1.42339248,33.4974242 1.743942,33.4821599 2.29345545,33.4821599 L2.88876169,33.4821599 L2.88876169,36.0923488 L1.85079183,36.0923488 C1.36233543,36.0923488 0.782293455,36.0847167 0.232780004,36.0541881 C0.232780004,36.3289449 0.255676398,36.6037016 0.286204923,36.7716085 C0.309101317,36.9013547 0.324365579,36.9318832 0.446479679,36.9242511 C1.04178592,36.916619 1.53787445,36.8937226 1.85079183,36.8937226 L4.91890861,36.8937226 C5.41499714,36.8937226 6.09425682,36.9089868 6.46059912,36.9242511 C6.5521847,36.9242511 6.57508109,36.8860904 6.57508109,36.7868727 C6.58271322,36.5884373 6.58271322,36.3747376 6.57508109,36.1763022 C6.57508109,36.0847167 6.53692044,36.046556 6.45296699,36.0541881 C5.93398206,36.0694524 5.42262927,36.0847167 4.91127647,36.0847167 L3.8198817,36.0847167 L3.8198817,33.4821599 Z M12.1923297,35.2680786 C12.7571074,35.2680786 13.3218851,35.2757107 13.894295,35.2833429 C14.0011448,35.290975 14.0316733,35.2604465 14.0316733,35.1688609 C14.0469376,34.939897 14.0469376,34.6804045 14.0316733,34.4514406 C14.0316733,34.359855 14.008777,34.3369586 13.894295,34.3445907 C13.3066209,34.3522229 12.7189468,34.3674871 12.1389048,34.3674871 L9.68135852,34.3674871 C8.91051326,34.3674871 8.5289067,34.3522229 8.03281816,34.2759015 C8.06334669,34.6651402 8.10913948,35.0238504 8.14730013,35.1993894 C8.17019653,35.3138714 8.23125358,35.3596642 8.32283915,35.3596642 C8.39916047,35.3596642 8.68918145,35.2680786 9.44476245,35.2680786 L12.1923297,35.2680786 Z M20.6182026,32.9479107 L17.3211219,32.9479107 C16.8860904,32.9479107 16.4205304,32.9784392 15.9702347,33.0089678 C15.8786491,33.0165999 15.8481206,32.963175 15.8328563,32.8944858 C15.7717993,32.6807861 15.7260065,32.2991795 15.695478,32.0702156 C16.2144629,32.1083763 16.6342301,32.1236405 17.2448006,32.1236405 L20.5189849,32.1236405 C20.8395344,32.1236405 20.9692807,32.1083763 21.045602,32.0778477 C21.0837626,32.0625835 21.1524518,32.0244228 21.1906125,32.0244228 C21.2516695,32.0244228 21.3127266,32.0702156 21.3661515,32.1312727 C21.5340584,32.2762832 21.6790689,32.4365579 21.8240794,32.6120969 C21.86224,32.6578897 21.8851364,32.7036825 21.8851364,32.7494753 C21.8851364,32.8105323 21.8469758,32.8639573 21.7782866,32.90975 C21.6943331,32.9708071 21.6332761,33.0471284 21.572219,33.1310819 C21.2135089,33.6729632 20.7403167,34.1995802 20.2289639,34.6040832 C20.1831712,34.649876 20.1297462,34.6727724 20.0686892,34.6727724 C20.0076321,34.6727724 19.9389429,34.6422438 19.885518,34.5964511 C19.6947147,34.4438084 19.5039115,34.359855 19.2520511,34.2835337 C19.8626216,33.8256058 20.2365961,33.4974242 20.6182026,32.9479107 Z M16.1534058,37.382179 C16.9853081,36.9471475 17.4203396,36.5350124 17.7485213,35.9244419 C18.0385423,35.3825606 18.1224957,34.8635757 18.1224957,34.1232589 C18.1224957,33.8408701 18.1072314,33.665331 18.0461744,33.4058386 C18.4201488,33.4439992 18.8170197,33.4974242 19.0307193,33.5508491 C19.129937,33.5737455 19.1604656,33.6271704 19.1604656,33.6958596 C19.1604656,33.7416524 19.1452013,33.7874451 19.1223049,33.8332379 C19.06888,33.9400878 19.0612479,34.0164091 19.0536157,34.1461553 C19.0307193,34.886472 18.954398,35.5657317 18.60332,36.2449914 C18.3056669,36.8174013 17.847739,37.3592826 17.2142721,37.7637855 C17.1455829,37.8095783 17.0768937,37.8401068 17.0005724,37.8401068 C16.9471475,37.8401068 16.8937226,37.8172105 16.8479298,37.7714177 C16.6647586,37.6111429 16.4434268,37.4890288 16.1534058,37.382179 Z M26.800229,33.6729632 C27.1131463,33.3676779 27.3955352,33.0700248 27.6931883,32.7113146 C27.8992559,32.4899828 28.02137,32.3755009 28.1511162,32.2915474 C28.2121732,32.2533868 28.257966,32.1846976 28.257966,32.1236405 C28.257966,32.0854799 28.2427018,32.0396871 28.196909,32.0091586 C28.0290021,31.8717802 27.6931883,31.6657127 27.3497424,31.4749094 C27.2276283,31.803091 27.1284106,31.9557336 26.8689181,32.2610189 C26.395726,32.8257966 25.8462126,33.3600458 25.2432742,33.8561343 C24.5411181,34.4361763 23.8923869,34.8788399 22.8391528,35.4207212 C23.0681168,35.5428353 23.3199771,35.695478 23.4955161,35.871017 C23.548941,35.9244419 23.5947338,35.9473383 23.6557909,35.9473383 C23.6939515,35.9473383 23.7321122,35.9397062 23.7702728,35.9168098 C24.3808434,35.5962603 25.1974814,35.0162183 25.8691089,34.4514406 L25.8691089,36.2297272 C25.8691089,36.7487121 25.8462126,37.2448006 25.8385804,37.7943141 C25.8309483,37.8858996 25.8614768,37.9164282 25.9454303,37.9164282 C26.1896585,37.9316924 26.4644152,37.9316924 26.7086434,37.9164282 C26.7925968,37.9164282 26.8307575,37.8858996 26.8231254,37.7866819 C26.8078611,37.1761114 26.800229,36.7258157 26.800229,36.1991986 L26.800229,33.6729632 Z M37.676016,32.9479107 L34.3789353,32.9479107 C33.9439038,32.9479107 33.4783438,32.9784392 33.0280481,33.0089678 C32.9364625,33.0165999 32.905934,32.963175 32.8906697,32.8944858 C32.8296127,32.6807861 32.7838199,32.2991795 32.7532914,32.0702156 C33.2722763,32.1083763 33.6920435,32.1236405 34.302614,32.1236405 L37.5767983,32.1236405 C37.8973478,32.1236405 38.0270941,32.1083763 38.1034154,32.0778477 C38.141576,32.0625835 38.2102652,32.0244228 38.2484259,32.0244228 C38.3094829,32.0244228 38.37054,32.0702156 38.4239649,32.1312727 C38.5918718,32.2762832 38.7368823,32.4365579 38.8818928,32.6120969 C38.9200534,32.6578897 38.9429498,32.7036825 38.9429498,32.7494753 C38.9429498,32.8105323 38.9047892,32.8639573 38.8361,32.90975 C38.7521465,32.9708071 38.6910895,33.0471284 38.6300324,33.1310819 C38.2713223,33.6729632 37.7981301,34.1995802 37.2867773,34.6040832 C37.2409845,34.649876 37.1875596,34.6727724 37.1265026,34.6727724 C37.0654455,34.6727724 36.9967563,34.6422438 36.9433314,34.5964511 C36.7525281,34.4438084 36.5617249,34.359855 36.3098645,34.2835337 C36.920435,33.8256058 37.2944095,33.4974242 37.676016,32.9479107 Z M33.2112192,37.382179 C34.0431215,36.9471475 34.478153,36.5350124 34.8063347,35.9244419 C35.0963557,35.3825606 35.1803091,34.8635757 35.1803091,34.1232589 C35.1803091,33.8408701 35.1650448,33.665331 35.1039878,33.4058386 C35.4779622,33.4439992 35.874833,33.4974242 36.0885327,33.5508491 C36.1877504,33.5737455 36.218279,33.6271704 36.218279,33.6958596 C36.218279,33.7416524 36.2030147,33.7874451 36.1801183,33.8332379 C36.1266934,33.9400878 36.1190612,34.0164091 36.1114291,34.1461553 C36.0885327,34.886472 36.0122114,35.5657317 35.6611334,36.2449914 C35.3634803,36.8174013 34.9055524,37.3592826 34.2720855,37.7637855 C34.2033963,37.8095783 34.1347071,37.8401068 34.0583858,37.8401068 C34.0049609,37.8401068 33.951536,37.8172105 33.9057432,37.7714177 C33.722572,37.6111429 33.5012402,37.4890288 33.2112192,37.382179 Z M41.9042168,33.1845068 C41.4615531,33.1845068 41.1181072,33.1845068 40.637283,33.1539782 C40.6525472,33.4363671 40.6678115,33.7111238 40.69834,33.894295 C40.7059721,33.9858806 40.7365007,34.0316733 40.812822,34.0240412 C41.1715322,34.0011448 41.5378745,33.9858806 41.9118489,33.9858806 L42.5987407,33.9858806 C42.4766266,34.7338294 42.2858233,35.2528143 42.0492272,35.6344209 C41.6370922,36.2678878 41.1333715,36.7487121 40.2556764,37.1913757 C40.5151689,37.3058577 40.7441328,37.4661324 40.8967754,37.6340393 C40.9425682,37.6874642 40.9959931,37.7103606 41.0417859,37.7103606 C41.0952108,37.7103606 41.1562679,37.6874642 41.2173249,37.6493036 C41.919481,37.2219042 42.4842587,36.6494944 42.8353368,36.0770845 C43.1558863,35.5733639 43.3619538,34.886472 43.5145965,33.9629842 L45.056287,33.9629842 C45.0333906,35.0238504 44.9647014,35.6725816 44.827323,36.2526235 C44.7357375,36.5960695 44.6365197,36.7181836 44.4304522,36.7868727 C44.2396489,36.8479298 43.9572601,36.8784583 43.3924824,36.8555619 C43.6138142,37.0616295 43.7359283,37.267697 43.835146,37.5500859 C43.8656745,37.6493036 43.9267315,37.7027285 44.0183171,37.7027285 C44.3388666,37.7027285 44.6136234,37.6645678 44.7891624,37.618775 C45.2776188,37.4966609 45.5371112,37.1761114 45.6897539,36.5884373 C45.8347644,36.0770845 45.9416142,35.0162183 45.9721427,34.0774661 C45.987407,33.6729632 46.0026712,33.3676779 46.0026712,33.2684602 C46.0026712,33.1845068 45.9645106,33.1616104 45.8423965,33.1616104 C45.4913185,33.1616104 45.1326083,33.1768746 44.7815302,33.1768746 L43.6214463,33.1768746 C43.6596069,32.8029002 43.6672391,32.6197291 43.6901355,32.3755009 C43.7053997,32.207594 43.720664,32.1312727 43.7893532,32.0167907 C43.8122496,31.9709979 43.8275138,31.917573 43.8275138,31.8717802 C43.8275138,31.803091 43.7969853,31.742034 43.6977676,31.7115054 C43.4535394,31.6428163 43.1100935,31.5893913 42.7055905,31.5512307 C42.7513833,31.7954589 42.7590155,31.9557336 42.7590155,32.1541691 C42.7513833,32.5663041 42.7361191,32.8105323 42.7055905,33.1845068 L41.9042168,33.1845068 Z M52.848693,31.688609 L53.2837245,31.4443808 C53.3218851,31.4214844 53.3524137,31.4291166 53.3905743,31.4672772 C53.6119061,31.6733448 53.8561343,32.0091586 54.0393055,32.3526045 C54.0622019,32.3983973 54.0622019,32.4365579 54.0011448,32.4747186 L53.6576989,32.6807861 C53.604274,32.7113146 53.5661133,32.6960504 53.5355848,32.6426255 C53.3371494,32.268651 53.1234497,31.9557336 52.848693,31.688609 Z M53.5966419,31.2535776 L54.008777,31.0169815 C54.0545697,30.986453 54.0774661,31.0017172 54.1156268,31.0398779 C54.3751193,31.2841061 54.6193475,31.6122877 54.7643579,31.8946766 C54.7872543,31.9404694 54.7948865,31.9862622 54.7261973,32.032055 L54.4056478,32.2381225 C54.3369586,32.2762832 54.2987979,32.2457546 54.2759015,32.1999618 C54.1003625,31.8565159 53.8866629,31.5435985 53.5966419,31.2535776 Z M51.4062202,32.7723717 C51.8259874,32.7723717 52.2762832,32.7800038 52.6884182,32.7952681 C52.7723717,32.7952681 52.7876359,32.7571074 52.7876359,32.6502576 C52.8029002,32.4670864 52.8029002,32.2762832 52.7876359,32.093112 C52.7876359,31.9938943 52.7723717,31.9481015 52.6960504,31.9481015 C52.3144438,31.9709979 51.8336195,31.97863 51.4062202,31.97863 L50.001908,31.97863 C49.6584621,31.97863 49.2692234,31.9709979 48.7349742,31.9404694 C48.7578706,32.2152261 48.7655028,32.4899828 48.7883992,32.673154 C48.7960313,32.7647396 48.8189277,32.8029002 48.9181454,32.8029002 C49.3455447,32.7876359 49.65083,32.7723717 50.001908,32.7723717 L51.4062202,32.7723717 Z M52.5357756,34.5430261 C53.0623927,34.5430261 53.5890097,34.5582904 53.9858806,34.5735547 C54.0545697,34.5735547 54.1003625,34.5430261 54.1003625,34.4438084 C54.1079947,34.3445907 54.1079947,33.955352 54.1003625,33.8561343 C54.1003625,33.7492845 54.0927304,33.7034917 54.0164091,33.7034917 C53.5661133,33.7340202 53.1234497,33.7492845 52.5281435,33.7492845 L49.1013165,33.7492845 C48.6586529,33.7492845 48.2312536,33.7492845 47.8038542,33.7111238 C47.8038542,33.9400878 47.8267506,34.2301088 47.8649113,34.4438084 C47.8725434,34.5430261 47.8954398,34.5964511 47.964129,34.5888189 C48.3533677,34.5659225 48.7273421,34.5430261 49.1089487,34.5430261 L50.5590536,34.5430261 C50.5285251,35.2680786 50.4522038,35.6802137 50.1698149,36.1839344 C49.8492654,36.7639763 49.3989697,37.1379508 48.6510208,37.5424537 C48.9181454,37.6416714 49.1776379,37.7943141 49.3302805,37.9469567 C49.3837054,38.0003816 49.4371303,38.023278 49.4905552,38.023278 C49.5592444,38.023278 49.6355657,37.9851173 49.7195192,37.9316924 C50.2079756,37.6416714 50.757489,37.0845259 51.0627743,36.4892196 C51.3604274,35.9091776 51.4672772,35.3978248 51.51307,34.5430261 L52.5357756,34.5430261 Z M56.8860904,32.4060294 C57.8630032,32.5815684 58.8780767,32.8792215 59.7710361,33.2837245 C59.8473574,33.3218851 59.9160466,33.3218851 59.9542072,33.2302996 C60.0305285,33.0623927 60.1679069,32.7494753 60.2213318,32.5663041 C60.2671246,32.4670864 60.2518603,32.4289258 60.1297462,32.3755009 C59.3741652,32.0396871 58.2217134,31.7267697 57.4127075,31.5741271 C57.3058577,31.5512307 57.267697,31.5512307 57.20664,31.6733448 C57.1455829,31.7954589 56.977676,32.1846976 56.8860904,32.4060294 Z M56.3747376,34.3903835 C57.2448006,34.5811868 58.0538065,34.8177829 58.8704446,35.2070216 C58.9086052,35.229918 58.9391338,35.2375501 58.9696623,35.2375501 C59.0078229,35.2375501 59.0383515,35.2070216 59.0765121,35.1383324 C59.1528334,34.9933219 59.2825797,34.6956688 59.3283724,34.5506583 C59.3665331,34.4361763 59.3512688,34.3827514 59.2291547,34.3293265 C58.5880557,34.0316733 57.7103606,33.7645488 56.9013547,33.5890097 C56.7868727,33.5584812 56.7410799,33.5813776 56.7029193,33.665331 C56.626598,33.8027094 56.4968517,34.0850983 56.3747376,34.3903835 Z M56.2526235,36.6571265 C57.5729823,36.9089868 58.7864911,37.2982255 60.0228964,37.9240603 C60.0610571,37.9469567 60.0992177,37.962221 60.1297462,37.962221 C60.175539,37.962221 60.2060675,37.9316924 60.2442282,37.8706354 C60.351078,37.6798321 60.4579279,37.4661324 60.5495135,37.2448006 C60.6029384,37.1379508 60.5571456,37.0768937 60.4731921,37.0387331 C59.2520511,36.4434268 57.9774852,36.0236596 56.8174013,35.8481206 C56.687655,35.8252242 56.6418622,35.871017 56.6037016,35.9397062 C56.5044839,36.1152452 56.3518413,36.4205304 56.2526235,36.6571265 Z M67.1818355,35.2680786 C67.7466132,35.2680786 68.311391,35.2757107 68.8838008,35.2833429 C68.9906506,35.290975 69.0211792,35.2604465 69.0211792,35.1688609 C69.0364434,34.939897 69.0364434,34.6804045 69.0211792,34.4514406 C69.0211792,34.359855 68.9982828,34.3369586 68.8838008,34.3445907 C68.2961267,34.3522229 67.7084526,34.3674871 67.1284106,34.3674871 L64.6708643,34.3674871 C63.9000191,34.3674871 63.5184125,34.3522229 63.022324,34.2759015 C63.0528525,34.6651402 63.0986453,35.0238504 63.136806,35.1993894 C63.1597023,35.3138714 63.2207594,35.3596642 63.312345,35.3596642 C63.3886663,35.3596642 63.6786873,35.2680786 64.4342683,35.2680786 L67.1818355,35.2680786 Z" id="Shape" fill="#00E6E6" fill-rule="nonzero"></path>
    </g>
</svg>