<svg height="29.7" viewBox="0 0 140 29.7" width="140" xmlns="http://www.w3.org/2000/svg"><g fill="#02B3E4"><path d="m54.54 12.13h-10.54l1 3.36h7.6c2.18 0 2.83 1.1 2.83 2.83v4c0 1.72-.65 2.83-2.83 2.83h-4.53v-8.08h-4.07v11.47h10.54c3.4 0 4.94-1.44 4.94-4.95v-6.52c0-3.51-1.54-4.94-4.94-4.94z"/><path d="m112.46 12.13-3.7 10.51-3.7-10.51h-4.36v16.41h3.86v-8.82l3.13 8.82h2.14l3.13-8.82v8.82h3.86v-16.41z"/><path d="m93.22 15.67h-7.22l1 2.69h4.63c1.6 0 2.16.75 2.24 1.94h-5.87c-2.71 0-4 1.14-4 3.95v.34c0 2.8 1.24 3.95 4 3.95h5.22c2.71 0 4-1.15 4-3.95v-5c-.05-2.77-1.29-3.92-4-3.92zm-1.61 10.18h-2c-1.74 0-2.18-.61-2.18-1.43s.44-1.42 2.18-1.42h4.26v.61c0 1.39-.52 2.24-2.26 2.24z"/><path d="m69.86 15.67h-7.22l1 2.69h4.62c1.6 0 2.17.75 2.25 1.94h-5.86c-2.72 0-4 1.14-4 3.95v.34c0 2.8 1.23 3.95 4 3.95h5.21c2.71 0 4-1.15 4-3.95v-5c-.05-2.77-1.29-3.92-4-3.92zm-1.61 10.18h-2c-1.74 0-2.18-.61-2.18-1.43s.44-1.42 2.18-1.42h4.27v.61c0 1.39-.52 2.24-2.27 2.24z"/><path d="m82.77 25.85h-1.18c-1.73 0-2.26-.88-2.26-2.26v-5.23h3.73l-1-2.69h-2.73v-3.54h-3.33v3.54h-1.68l1 2.69h.68v6.23c0 2.8 1.24 3.95 3.95 3.95h3.77z"/><path d="m119.07 15.67h3.29v12.87h-3.29z"/><path d="m122.36 13a1.65 1.65 0 1 1 -1.64-1.65 1.65 1.65 0 0 1 1.64 1.65z"/><path d="m136.1 22a9.63 9.63 0 0 0 1.37-2.61l1.65-4h-3.29l-1.35 3c-.72 1.31-.88 2.26-2.62 2.26h-.07c-1.74 0-1.91-.95-2.62-2.26l-1.35-3h-3.3l1.65 4a9.62 9.62 0 0 0 1.38 2.61 9.4 9.4 0 0 0 -1.38 2.6l-1.65 4h3.3l1.35-3c.71-1.31.88-2.26 2.62-2.26h.07c1.74 0 1.9.95 2.62 2.26l1.35 3h3.29l-1.65-4a9.41 9.41 0 0 0 -1.37-2.6z"/><path d="m33.91 15.65a1.81 1.81 0 0 0 -2.54.41 10.15 10.15 0 0 1 -8.29 4.22v3.63a13.73 13.73 0 0 0 11.23-5.72 1.82 1.82 0 0 0 -.4-2.54z"/><path d="m38.43 11.76a2.25 2.25 0 1 1 -2.25-2.25 2.25 2.25 0 0 1 2.25 2.25z"/><path d="m12.24 15.65a1.81 1.81 0 0 1 2.54.41 10.17 10.17 0 0 0 8.3 4.22v-10.77l-8.78-8.77h-14.3v27.8h23v-4.63a13.75 13.75 0 0 1 -11.24-5.72 1.82 1.82 0 0 1 .48-2.54zm-2.24-1.65a2.25 2.25 0 1 1 2.25-2.25 2.25 2.25 0 0 1 -2.25 2.25z"/></g><path d="m0 0h140v29.7h-140z" fill="none"/></svg>