<svg id="レイヤー_1" data-name="レイヤー 1" xmlns="http://www.w3.org/2000/svg" viewBox="0 0 1428.57 144"><title>アートボード 1</title><path d="M399.75,2.06,381.33,68.8,360.92,2.06H315.14L301.27,74.94,288.43,2.06h-49.2L220.57,68.8,200.24,2.06H154.38L144.1,56.68C136.28,21.83,104.94,2.06,57.73,2.06H0V144H69.93c22.49,0,47.85-7.18,62.6-26.32L127.59,144h48.88L186.6,84.11l17.14,59.57h38.2l14.59-59.25,8.94,59.25h71.76l10-59.57,17.15,59.57H402.7l14.6-59.25,8.85,59.25H474L449.19,2.06ZM61.64,94.72V50.46c10.53,0,26.64.48,26.64,22.09S72.81,94.72,61.64,94.72"/><path d="M476.59,6.8c-.8-2.8.8-4.8,3.6-4.8h23.4a4.11,4.11,0,0,1,3.6,2.8l17.2,67.8h.8l31-70.4a3.81,3.81,0,0,1,3.4-2.2h3.6a3.4,3.4,0,0,1,3.4,2.2l31,70.4h.8l17.2-67.8a4.11,4.11,0,0,1,3.6-2.8h23.4c2.8,0,4.4,2,3.6,4.8l-37.8,134.4a3.84,3.84,0,0,1-3.6,2.8h-3.2a4.06,4.06,0,0,1-3.4-2.2L561.59,60H561l-36.4,81.8a4.06,4.06,0,0,1-3.4,2.2H518a3.84,3.84,0,0,1-3.6-2.8Z" fill="#174a5b"/><path d="M661.21,5.8A3.8,3.8,0,0,1,665,2h82.8a3.8,3.8,0,0,1,3.8,3.8V27.6a3.8,3.8,0,0,1-3.8,3.8h-55.4V56.2H738a3.93,3.93,0,0,1,3.8,3.8V81.8a3.8,3.8,0,0,1-3.8,3.8h-45.6v27h55.4a3.8,3.8,0,0,1,3.8,3.8v21.8a3.8,3.8,0,0,1-3.8,3.8H665a3.8,3.8,0,0,1-3.8-3.8Z" fill="#174a5b"/><path d="M776.3,5.8A3.8,3.8,0,0,1,780.1,2h46.6c23.6,0,43,16.2,43,37.2,0,15.4-13.8,26.6-23.2,31.6,10.6,4.4,26.8,14.2,26.8,32.6,0,22.4-19.8,38.6-43.6,38.6H780.1a3.8,3.8,0,0,1-3.8-3.8Zm46.8,53a14.26,14.26,0,0,0,14-14.4c0-8-6.4-13.6-14-13.6H807.5v28Zm2.6,54.6a14.51,14.51,0,0,0,14.4-14.6c0-8-8.6-14-16.4-14H807.5v28.6Z" fill="#174a5b"/><path d="M955.37,0c20,0,34.8,6.2,48.4,18.6a3.72,3.72,0,0,1,.2,5.6l-15.6,16.2a3.5,3.5,0,0,1-5,0,40.86,40.86,0,0,0-27-10.2c-22.6,0-39.2,18.8-39.2,41.2,0,22.2,16.8,40.6,39.4,40.6,9.4,0,19.6-3.4,26.8-9.6a4,4,0,0,1,5.2.2l15.6,16.6a4,4,0,0,1-.2,5.4,68.64,68.64,0,0,1-48.6,19.4,72,72,0,1,1,0-144" fill="#174a5b"/><path d="M1008.84,136.8l62.6-134.6a4.06,4.06,0,0,1,3.4-2.2h2a4.06,4.06,0,0,1,3.4,2.2l62.6,134.6a3.53,3.53,0,0,1-3.4,5.2h-22.2c-3.6,0-5.2-1.2-7-5l-7.2-15.8h-54.4l-7.2,16a7.45,7.45,0,0,1-7.2,4.8h-22a3.53,3.53,0,0,1-3.4-5.2M1091,94l-15.2-33h-.2l-15,33Z" fill="#174a5b"/><path d="M1175.77,3.2a3.82,3.82,0,0,1,3.6-3.2h3.2a4.42,4.42,0,0,1,3.4,2l46.4,86.4h.4L1279.17,2a4.42,4.42,0,0,1,3.4-2h3.2a3.82,3.82,0,0,1,3.6,3.2L1312,137.6a3.67,3.67,0,0,1-3.8,4.4h-23.6a4.07,4.07,0,0,1-3.8-3.2l-9-61.8h-.4l-33.6,64.8a4.68,4.68,0,0,1-3.4,2.2h-3.6a4.35,4.35,0,0,1-3.4-2.2L1193.57,77h-.4l-8.8,61.8a3.89,3.89,0,0,1-3.8,3.2H1157a3.67,3.67,0,0,1-3.8-4.4Z" fill="#174a5b"/><path d="M1331.77,5.8a3.8,3.8,0,0,1,3.8-3.8h48.2c24.6,0,44.8,20,44.8,44.2,0,24.8-20.2,45-44.6,45h-21v47a3.93,3.93,0,0,1-3.8,3.8h-23.6a3.8,3.8,0,0,1-3.8-3.8ZM1382,62a15.71,15.71,0,0,0,15.8-15.8c0-8.4-7.2-14.8-15.8-14.8h-19V62Z" fill="#174a5b"/></svg>