<?xml version="1.0" encoding="UTF-8" standalone="no"?>
<!-- Created with Inkscape (http://www.inkscape.org/) -->

<svg
   xmlns:dc="http://purl.org/dc/elements/1.1/"
   xmlns:cc="http://creativecommons.org/ns#"
   xmlns:rdf="http://www.w3.org/1999/02/22-rdf-syntax-ns#"
   xmlns:svg="http://www.w3.org/2000/svg"
   xmlns="http://www.w3.org/2000/svg"
   xmlns:sodipodi="http://sodipodi.sourceforge.net/DTD/sodipodi-0.dtd"
   xmlns:inkscape="http://www.inkscape.org/namespaces/inkscape"
   id="svg3390"
   version="1.1"
   inkscape:version="0.91 r13725"
   xml:space="preserve"
   width="560.65002"
   height="273.79999"
   viewBox="0 0 560.65002 273.79999"
   sodipodi:docname="logo.svg"><metadata
     id="metadata3396"><rdf:RDF><cc:Work
         rdf:about=""><dc:format>image/svg+xml</dc:format><dc:type
           rdf:resource="http://purl.org/dc/dcmitype/StillImage" /><dc:title></dc:title></cc:Work></rdf:RDF></metadata><defs
     id="defs3394" /><sodipodi:namedview
     pagecolor="#ffffff"
     bordercolor="#666666"
     borderopacity="1"
     objecttolerance="10"
     gridtolerance="10"
     guidetolerance="10"
     inkscape:pageopacity="0"
     inkscape:pageshadow="2"
     inkscape:window-width="1440"
     inkscape:window-height="798"
     id="namedview3392"
     showgrid="false"
     inkscape:zoom="1.4857754"
     inkscape:cx="280.32501"
     inkscape:cy="136.89999"
     inkscape:window-x="0"
     inkscape:window-y="1"
     inkscape:window-maximized="1"
     inkscape:current-layer="g3398" /><g
     id="g3398"
     inkscape:groupmode="layer"
     inkscape:label="ink_ext_XXXXXX"
     transform="matrix(1.25,0,0,-1.25,0,273.8)"><g
       id="g3400"
       transform="scale(0.1,0.1)"><path
         d="M 1284.22,268.52 C 1208.75,269.789 1156.83,210.699 1168.27,136.551 1179.69,62.4102 1250.15,1.26953 1325.63,0.0117188 1401.1,-1.23828 1453.01,57.8398 1441.58,131.988 c -11.42,74.16 -81.88,135.274 -157.36,136.532"
         style="fill:#36a9b7;fill-opacity:1;fill-rule:evenodd;stroke:none"
         id="path3402"
         inkscape:connector-curvature="0" /><path
         d="m 1780.37,1417.31 c 21.29,71.13 -13.09,123.39 -55.68,159.92 -203.99,174.9 -890.874,278.67 -1183.811,244.4 -11.723,30.13 -29.949,64.03 -59.828,95.5 1.804,0.35 3.672,0.6 5.441,0.82 39.207,4.36 77.082,7.17 114.09,8.62 36.961,1.46 73.156,1.56 109.004,0.53 37.695,-1.06 75,-3.39 112.383,-6.72 37.379,-3.31 75.011,-7.63 113.398,-12.69 136.743,-18.05 269.443,-45.87 388.103,-80.74 117.86,-34.65 221.96,-76.31 302.54,-122.31 33.52,-19.14 62.95,-39.03 87.54,-59.45 69.76,-57.91 116.08,-138.1 66.82,-227.88"
         style="fill:#918f8f;fill-opacity:1;fill-rule:evenodd;stroke:none"
         id="path3404"
         inkscape:connector-curvature="0" /><path
         d="m 1099.98,1031.36 c -51.19,0 -33.65,-74.712 -10.15,-135.891 C 1132.49,784.43 1203.19,637.949 1234.8,536.121 1275.49,405.07 1084.52,349.77 1009.9,524.602 951.023,662.531 894.957,798.398 845.266,926.879 796.406,1053.15 803.75,1208.61 987.98,1229.01 c 167.92,18.6 857.61,-28.24 816.19,291.21 -2.95,22.79 -12.39,45.4 -27.55,67.6 -14.43,21.12 -34.12,41.89 -58.39,62.08 -25.03,20.85 -54.94,41.11 -88.96,60.53 -80.84,46.17 -185.28,87.98 -303.53,122.76 -119.18,35.07 -252.38,63.01 -389.541,81.12 -152.117,20.06 -299.094,27.25 -451.582,10.15 -3.191,-0.34 -6.312,-0.77 -9.48,-1.28 31.91,-43.03 95.289,-179.31 45.316,-247.18 -82.277,-111.79 -35.965,-230.09 -89.992,-272.67 l 16.57,-58.13 16.567,-15.52 -25.09,7.37 -8.074,-23.48 -3.036,21.89 -36.043,51.59 C 306.926,1379.52 255.039,1505.9 46.3867,1607.89 3.88672,1628.66 -2.36328,1670.2 0.644531,1713.39 14.9648,1918.24 52.5469,2164.79 488.031,2185.7 c 229.414,11 506.547,-25.53 761.279,-92.64 238.05,-62.73 516.97,-158.52 686.03,-345.96 188.33,-208.8 117.79,-408.73 -45.83,-541.51 -201.01,-163.13 -526.3,-174.23 -789.53,-174.23 z m -685.335,716.16 c 18.144,-11.47 15.382,-40.02 12.406,-70.49 -3.496,-35.98 -19.653,-83.08 29.105,-91.79 -5.203,6.01 -9.027,12.28 -11.84,18.81 25.485,19.45 3.297,44.99 -2.824,88.31 -2.906,20.53 -5.199,48.9 -26.847,55.16 z m -251.188,-60.83 c -6.559,-20.47 13.926,-40.57 35.781,-62 25.805,-25.3 68.492,-50.98 36.735,-89.01 0.121,7.94 -0.989,15.22 -3.039,22 -31.977,-1.47 -31.442,32.35 -54.59,69.46 -10.989,17.59 -27.469,40.83 -14.887,59.55"
         style="fill:#4f4c4c;fill-opacity:1;fill-rule:evenodd;stroke:none"
         id="path3406"
         inkscape:connector-curvature="0" /><path
         d="m 1969.48,1171.37 305.17,-801.839 0.14,-6.109 -21.56,-66.442 -0.02,0 c -40.9,-128.492 -88.87,-127.519 -196.86,-125.351 -13.63,0.281 -28.36,0.57 -46.91,0.57 l -45.33,0 0,-169.23025 170.01,0 c 106.74,0 172.81,25.81255 220.86,73.97265 48.55,48.6996 79.74,120.9686 115.92,212.6486 l 0,0.012 325.76,881.768 -210.52,0 -194.62,-548.472 -201.05,548.472 -220.99,0"
         style="fill:#4f4c4c;fill-opacity:1;fill-rule:nonzero;stroke:none"
         id="path3408"
         inkscape:connector-curvature="0" /><path
         d="m 3726.15,840.309 82.9,99.3 10.88,13.039 7.24,8.692 9.14,-6.75 13.7,-10.16 225.77,-167.2 c 27.61,28.129 51.98,59.09 73.19,92.258 24.05,37.614 44.17,78.242 60.51,120.942 18.14,47.46 31.58,97.44 40.53,148.68 9.3,53.09 13.8,107.59 13.8,162.18 0,97.87 -14.33,195.86 -44.37,286.05 -27.89,83.74 -69.36,160.86 -125.5,224.99 -50.64,57.86 -113.5,105.24 -189.35,137.38 -70.21,29.75 -151.77,46.49 -245.37,46.49 -94.08,0 -176.03,-16.73 -246.53,-46.45 -76.19,-32.12 -139.24,-79.46 -190.05,-137.29 -56.32,-64.08 -97.89,-141.22 -125.87,-224.98 -30.14,-90.25 -44.5,-188.3 -44.5,-286.19 0,-97.89 14.36,-195.94 44.5,-286.19 27.98,-83.772 69.54,-160.881 125.87,-224.991 50.81,-57.8 113.88,-105.14 190.06,-137.257 70.49,-29.743 152.44,-46.481 246.52,-46.481 29.4,0 57.56,1.629 84.45,4.809 27.18,3.218 53.05,8.039 77.59,14.359 20.03,5.199 39.45,11.473 58.15,18.77 12.72,4.98 25.05,10.41 36.94,16.25 l -184.9,136.179 -15.48,11.41 -10.33,7.602 8.2,9.828 12.31,14.731 z m 519.21,-189.329 213.45,-159.14 15.21,-11.34 10.12,-7.559 -8.1,-9.761 -12.18,-14.668 -80.52,-96.981 -10.84,-13.051 -7.23,-8.699 -9.1,6.719 -13.68,10.09 -246.04,181.539 c -27.56,-17.391 -56.72,-33.008 -87.42,-46.699 -32.85,-14.649 -67.49,-27.141 -103.82,-37.27 -37.72,-10.539 -77.37,-18.582 -118.86,-23.969 -40.9,-5.3 -83.29,-8.031 -127.13,-8.031 -125.34,0 -236.54,21.949 -333.59,61.391 -103.94,42.211 -191.54,104.449 -262.87,181.211 -76,81.769 -133.26,179.898 -171.87,287.707 -39.98,111.671 -59.97,233.761 -59.97,358.821 0,125.08 19.99,247.16 59.97,358.84 38.61,107.78 95.87,205.92 171.87,287.7 71.33,76.76 158.93,139.01 262.87,181.21 97.05,39.43 208.25,61.39 333.59,61.39 124.84,0 235.69,-21.99 332.44,-61.45 103.55,-42.25 190.96,-104.56 262.17,-181.42 75.81,-81.85 132.97,-179.98 171.49,-287.7 39.89,-111.62 59.84,-233.62 59.84,-358.57 0,-66.8 -5.82,-132.93 -17.43,-197.14 -11.47,-63.51 -28.6,-124.931 -51.36,-183.08 -20.99,-53.621 -46.8,-104.609 -77.43,-152.058 -27.35,-42.364 -58.54,-81.91 -93.58,-118.032"
         style="fill:#36a9b7;fill-opacity:1;fill-rule:nonzero;stroke:none"
         id="path3410"
         inkscape:connector-curvature="0" /></g></g></svg>